<?xml version="1.0" standalone="no"?>
<!DOCTYPE svg PUBLIC "-//W3C//DTD SVG 1.1//EN" "http://www.w3.org/Graphics/SVG/1.1/DTD/svg11.dtd">
<svg width="100%" height="100%" viewBox="0 0 803 803" version="1.1" xmlns="http://www.w3.org/2000/svg" xmlns:xlink="http://www.w3.org/1999/xlink" xml:space="preserve" style="fill-rule:evenodd;clip-rule:evenodd;stroke-linejoin:round;stroke-miterlimit:1.41421;">
    <g transform="matrix(1,0,0,1,-1214.16,-470.341)">
        <circle cx="1615.49" cy="871.678" r="401.337" style="fill:rgb(245,82,89);"/>
    </g>
    <g id="Layer 2" transform="matrix(4.16667,0,0,4.16667,-1308.79,-495.826)">
        <path d="M371.628,190.589L371.585,190.602C370.405,190.95 369.01,189.741 368.468,187.903L362.386,167.277C361.844,165.439 362.361,163.667 363.541,163.319L363.584,163.306C364.764,162.959 366.159,164.167 366.701,166.005L372.783,186.631C373.325,188.469 372.808,190.241 371.628,190.589" style="fill:white;fill-rule:nonzero;"/>
        <path d="M366.38,196.413L364.707,186.755C364.634,186.332 364.73,185.896 364.975,185.539L366.502,183.318C366.762,182.941 367.165,182.683 367.62,182.605L372.79,181.709C373.712,181.549 374.587,182.154 374.744,183.06C374.744,183.06 374.626,188.309 374.88,189.771C375.197,191.604 377.027,196.241 377.027,196.241C377.184,197.146 376.564,198.01 375.642,198.17L369.988,199.149C369.491,199.235 368.983,199.1 368.601,198.78L366.947,197.394C366.647,197.143 366.446,196.796 366.38,196.413" style="fill:white;fill-rule:nonzero;"/>
        <path d="M368.697,159.551C368.115,156.19 364.918,153.937 361.557,154.519C358.196,155.102 355.943,158.298 356.525,161.659C357.108,165.02 360.304,167.273 363.665,166.691C367.026,166.109 369.279,162.912 368.697,159.551" style="fill:white;fill-rule:nonzero;"/>
        <path d="M412.7,267.137L412.671,266.928C412.669,266.919 412.67,266.911 412.669,266.902C412.668,266.893 412.665,266.885 412.664,266.876L412.259,263.985C412.197,264.003 412.138,264.019 412.076,264.039C407.532,265.52 402.275,266.24 397.27,265.757C396.635,265.695 396.013,265.761 395.844,265.58L395.722,265.435L396.248,269.193L396.249,269.203L396.251,269.212L396.283,269.437L396.298,269.435C396.919,273.865 398.497,279.58 405.433,278.609C412.884,277.565 413.324,271.693 412.686,267.139L412.7,267.137Z" style="fill:white;fill-rule:nonzero;"/>
        <path d="M388.063,243.185C387.779,243.174 387.435,243.14 387.078,243.14C381.721,243.143 376.378,241.93 371.871,240.024C372.475,254.247 378.608,261.323 383.908,261.646C386.383,261.796 392.759,259.703 390.923,254.352C389.278,249.554 388.462,245.856 388.063,243.185" style="fill:white;fill-rule:nonzero;"/>
        <path d="M459.58,187.698C456.725,185.258 451.58,186.829 450.33,190.661C449.178,194.193 447.079,198.207 444.2,201.134C445.538,207.029 448.476,212.743 451.667,217.541C451.672,217.548 451.674,217.556 451.679,217.563C455.329,214.578 458.045,211.21 460.58,206.489C464.337,199.492 464.113,191.572 459.58,187.698" style="fill:white;fill-rule:nonzero;"/>
        <path d="M423.849,241.145L407.838,243.119C406.495,243.285 405.273,242.331 405.107,240.988L402.868,230.997C402.702,229.654 403.656,228.432 404.999,228.266L422.995,226.047C424.337,225.881 425.56,226.836 425.725,228.178L425.98,238.414C426.146,239.757 425.192,240.979 423.849,241.145M424.834,258.604C425.084,258.485 425.413,258.396 425.785,258.39C431.978,258.296 436.664,257.468 442.129,255.508L438.384,229.22L437.761,226.028C442.603,223.563 446.405,221.434 449.554,219.181C448.895,218.446 448.202,217.628 448.012,217.358C445.119,213.246 443.147,208.32 442.189,203.637C442.143,203.411 442.086,203.198 442.035,202.999C439.553,204.783 436.638,205.713 433.36,205.076C427.637,210.024 422.908,215.352 414.439,216.892C414.44,216.898 410.007,217.518 410.006,217.511C401.217,218.38 394.82,214.69 387.848,211.319C380.56,215.673 372.886,225.997 371.947,236.635C372.173,236.65 372.416,236.697 372.658,236.798C377.868,238.963 382.373,239.715 387.729,239.973C387.66,238.579 387.743,237.887 387.743,237.887C387.624,237.036 388.218,236.249 389.069,236.129L389.1,236.125C389.953,236.006 392.318,235.476 390.859,237.455L395.303,262.671L395.304,262.67C401.053,263.073 405.592,262.543 411.379,260.794C411.52,260.751 411.656,260.73 411.789,260.717L410.919,254.466C410.801,253.615 411.394,252.829 412.245,252.71L422.234,251.31C423.085,251.191 427.358,249.247 423.991,252.634L424.834,258.604Z" style="fill:white;fill-rule:nonzero;"/>
        <path d="M443.183,262.866L443.154,262.657C443.153,262.648 443.153,262.64 443.152,262.631C443.151,262.622 443.148,262.614 443.147,262.606L442.575,258.519C442.324,258.606 442.023,258.698 441.723,258.817C436.744,260.808 431.145,261.727 426.047,261.701C425.772,261.7 425.511,261.714 425.274,261.723L425.741,265.06L425.742,265.07L425.744,265.08L425.776,265.305L425.791,265.303C426.411,269.733 428.98,275.31 435.916,274.338C443.367,273.294 443.807,267.422 443.169,262.868L443.183,262.866Z" style="fill:white;fill-rule:nonzero;"/>
        <path d="M437.761,184.474C437.761,167.86 424.292,154.391 407.678,154.391C391.065,154.391 377.596,167.86 377.596,184.474C377.596,197.972 386.431,208.262 398.582,212.364C403.247,213.938 412.096,213.93 416.698,212.168C428.674,207.581 437.761,197.972 437.761,184.474" style="fill:rgb(9,24,38);fill-rule:nonzero;"/>
        <g>
            <clipPath id="_clip1">
                <rect x="381.183" y="158.225" width="44.764" height="44.302"/>
            </clipPath>
            <g clip-path="url(#_clip1)">
                <g opacity="0.149994">
                    <clipPath id="_clip2">
                        <rect x="381.183" y="158.225" width="44.764" height="44.302"/>
                    </clipPath>
                    <g clip-path="url(#_clip2)">
                        <path d="M419.053,160.405C409.003,156.496 397.291,157.606 389.224,165.672C381.232,173.664 378.741,185.851 383.833,195.231C391.262,208.914 407.561,200.624 415.351,192.5C423.381,184.127 432.586,165.669 419.053,160.405" style="fill:white;fill-rule:nonzero;"/>
                    </g>
                </g>
            </g>
        </g>
        <path d="M390.194,184.925C390.163,183.424 388.922,182.232 387.421,182.262C385.92,182.293 384.728,183.535 384.758,185.036C384.789,186.537 386.03,187.729 387.531,187.698C389.033,187.668 390.225,186.426 390.194,184.925" style="fill:white;fill-rule:nonzero;"/>
        <path d="M387.873,175.529C388.623,173.507 389.804,171.262 393.163,168.77C396.893,166.002 400.81,165.303 401.513,166.589C402.263,167.962 396.111,168.505 392.479,177.517C391.697,179.457 390.325,180.923 388.782,180.312C387.296,179.723 386.886,178.19 387.873,175.529" style="fill:white;fill-rule:nonzero;"/>
        <g transform="matrix(0.99997,-0.00773596,0.00773596,0.99997,-1.66083,3.09612)">
            <g opacity="0.300003">
                <path d="M414.511,217.001C414.512,217.007 410.079,217.627 410.078,217.621C401.289,218.49 394.854,214.631 387.882,211.26C385.287,212.961 384.774,213.207 383.138,215.134C381.784,216.731 389.76,220.85 397.761,221.184C408.254,221.621 419.663,216.064 414.511,217.001" style="fill:rgb(9,24,38);fill-rule:nonzero;"/>
            </g>
        </g>
        <g>
            <g opacity="0.300003">
                <clipPath id="_clip3">
                    <rect x="434.164" y="226.028" width="6.138" height="16.658"/>
                </clipPath>
                <g clip-path="url(#_clip3)">
                    <path d="M437.761,226.028C437.761,226.028 435.649,226.711 434.325,226.961C433.507,227.115 435.978,233.074 437.988,237.61C439.233,240.421 440.302,242.686 440.302,242.686C440.302,242.686 438.272,227.095 437.761,226.028" style="fill:rgb(9,24,38);fill-rule:nonzero;"/>
                </g>
            </g>
        </g>
    </g>
</svg>
